<svg width="990" height="440" viewBox="0 0 990 440" fill="none" xmlns="http://www.w3.org/2000/svg">
<path d="M88.6334 0.00012207H351.514C356.783 9.88628 360.935 20.2554 366.606 29.9095C366.744 30.1479 366.675 30.2671 366.399 30.2671H104.529C104.345 30.2671 104.197 30.3382 104.084 30.4803C94.0219 43.0011 83.454 55.0765 72.3802 66.7066C72.358 66.7297 72.3431 66.7589 72.3374 66.7905C72.3317 66.8221 72.3354 66.8547 72.3482 66.8842C72.3609 66.9136 72.382 66.9387 72.4089 66.9562C72.4358 66.9737 72.4673 66.9829 72.4994 66.9826L681.539 66.9199C681.74 66.9199 681.878 67.014 681.953 67.2021C689.644 86.7674 697.918 105.599 707.716 124.625C713.268 135.414 719.378 146.109 726.592 155.883C726.951 156.368 727.426 156.573 728.015 156.497C754.876 153.093 781.582 153.98 808.133 159.157C850.927 167.506 889.456 191.626 908.714 231.886C908.814 232.095 908.977 232.231 909.203 232.293C944.608 242.098 979.234 265.07 987.728 303.322C988.15 305.229 988.619 307.128 989.133 309.018V311.063C980.196 312.756 971.286 314.542 962.404 316.42C959.602 317.014 956.794 317.559 953.979 318.057C953.057 318.22 952.16 318.929 951.119 318.333C915.658 298.053 874.081 291.228 833.721 293.994C807.669 295.782 781.643 300.185 756.927 308.786C712.992 324.067 677.462 352.74 646.034 386.457C638.825 394.194 631.638 401.953 624.474 409.736C622.266 412.141 619.126 415.173 615.052 418.832C605.313 427.593 593.779 433.203 580.451 435.662C569.63 437.657 559.524 438.585 548.867 439.031C534.759 439.627 520.544 439.89 506.43 439.89C463.341 439.884 420.252 439.733 377.17 439.708C376.965 439.708 376.796 439.629 376.662 439.47L351.3 409.473C390.887 409.427 430.45 409.414 469.991 409.435C470.436 409.435 470.963 409.617 471.458 409.617C482.327 409.634 493.194 409.634 504.059 409.617C511.204 409.604 520.695 409.303 529.013 409.291C544.08 409.266 559.712 408.783 574.535 405.954C585.639 403.84 594.113 397.993 601.66 389.738C608.568 382.181 615.506 374.649 622.473 367.143C641.725 346.417 662.595 327.303 685.924 311.238C714.098 291.842 744.854 278.54 778.193 271.33C793.975 267.917 810.385 265.277 825.566 264.241C856.906 262.102 888.546 267.284 918.412 276.668C922.276 277.881 928.34 279.884 936.603 282.678C936.909 282.778 936.955 282.709 936.741 282.471C931.903 276.984 926.28 272.453 919.873 268.877C912.735 264.892 906.075 262.261 899.894 260.986C895.319 260.037 890.771 259.177 886.25 258.408C886.057 258.376 885.877 258.29 885.732 258.16C885.586 258.03 885.481 257.861 885.429 257.674C884.193 253.245 882.988 248.653 881.138 244.607C868.335 216.611 839.573 198.075 810.486 190.741C764.587 179.162 714.548 185.297 670.568 201.857C670.35 201.937 670.302 202.075 670.424 202.271C682.581 222.131 696.425 241.628 712.766 258.339C712.8 258.374 712.82 258.421 712.82 258.47C712.82 258.52 712.8 258.567 712.766 258.602L691.701 279.673C691.66 279.714 691.612 279.746 691.558 279.768C691.504 279.79 691.447 279.801 691.388 279.8C691.33 279.8 691.272 279.788 691.218 279.765C691.164 279.742 691.115 279.708 691.074 279.667C682.116 270.425 673.811 260.607 666.158 250.215C645.984 222.828 628.778 193.213 613.735 162.733C613.699 162.658 613.643 162.594 613.571 162.55C613.5 162.505 613.418 162.482 613.334 162.482H135.097H72.2297C72.2081 162.481 72.1866 162.486 72.1681 162.497C72.1496 162.508 72.135 162.525 72.1262 162.545C72.1173 162.564 72.1147 162.586 72.1186 162.608C72.1225 162.629 72.1328 162.648 72.1481 162.664C82.9878 174.457 93.4385 186.603 103.5 199.103C103.818 199.651 104.148 199.925 104.491 199.925C177.036 199.912 249.582 199.912 322.131 199.925C322.361 199.925 322.478 200.04 322.482 200.27L322.52 229.885C322.52 230.106 322.411 230.217 322.194 230.217L243.575 230.223L180.438 230.217C180.103 230.217 180.051 230.34 180.281 230.587C191.221 242.38 201.718 254.579 211.771 267.184L211.916 267.422C212.016 267.585 212.162 267.667 212.355 267.667H430.201C430.25 267.667 430.296 267.685 430.33 267.718C430.364 267.751 430.383 267.796 430.383 267.842L430.396 297.795C430.396 297.842 430.378 297.887 430.346 297.92C430.314 297.953 430.271 297.971 430.226 297.971L346.922 297.977L276.006 297.965C275.978 297.964 275.949 297.972 275.925 297.988C275.901 298.003 275.882 298.025 275.871 298.051C275.859 298.078 275.856 298.107 275.861 298.135C275.866 298.163 275.88 298.189 275.9 298.209C288.738 311.546 300.918 325.495 312.439 340.056C312.452 340.069 312.464 340.094 312.477 340.132C312.515 340.215 312.59 340.217 312.703 340.138C312.69 340.196 312.694 340.253 312.715 340.307C312.728 340.344 312.752 340.375 312.783 340.398C312.815 340.42 312.852 340.432 312.891 340.433H530.568C530.615 340.433 530.66 340.451 530.693 340.484C530.725 340.517 530.744 340.562 530.744 340.608L530.769 370.568C530.769 370.613 530.752 370.656 530.721 370.688C530.691 370.719 530.649 370.737 530.606 370.737L392.582 370.831L296.964 370.725C296.755 370.725 296.594 370.635 296.481 370.455C290.208 360.337 283.013 351.479 274.501 341.712C261.666 326.988 248.296 312.765 234.391 299.044C234.262 298.918 234.193 298.766 234.184 298.586L234.166 298.335C234.161 298.235 234.118 298.141 234.045 298.072C233.973 298.003 233.877 297.965 233.777 297.965H197.174C196.994 297.965 196.85 297.892 196.741 297.745C189.44 287.654 180.289 276.321 169.291 263.746C160.013 253.132 149.45 241.628 138.202 230.424C138.064 230.286 137.897 230.217 137.7 230.217H89.2921C89.1081 230.217 88.9596 230.142 88.8467 229.991C84.6145 224.178 80.6689 219.039 77.0096 214.572C61.9379 196.188 47.945 180.491 35.0311 167.481C23.422 155.78 11.8108 144.152 0.197469 132.598C-0.0701762 132.334 -0.0158108 132.202 0.360566 132.202H632.548C632.769 132.202 632.926 132.305 633.018 132.51C639.617 147.004 646.783 161.213 654.515 175.134C654.555 175.205 654.619 175.259 654.697 175.286C654.774 175.312 654.859 175.31 654.936 175.279C667.703 170.164 680.77 165.976 694.135 162.714C694.344 162.66 694.393 162.54 694.28 162.356C681.489 141.668 670.932 119.751 661.46 97.3875C661.389 97.2161 661.261 97.1303 661.077 97.1303L0.366839 97.2746C-0.0513574 97.2746 -0.111996 97.1262 0.184923 96.8292C22.9306 74.3094 50.1238 47.3483 73.064 20.4813C78.8183 13.74 84.0081 6.9129 88.6334 0.00012207Z" fill="#24286A"/>
<path d="M135.097 162.482H613.334C613.418 162.482 613.501 162.505 613.572 162.55C613.643 162.594 613.7 162.658 613.735 162.733C628.778 193.213 645.984 222.828 666.158 250.215C673.811 260.607 682.117 270.425 691.074 279.667C691.116 279.709 691.165 279.742 691.219 279.765C691.272 279.788 691.33 279.8 691.389 279.8C691.447 279.801 691.505 279.79 691.558 279.768C691.612 279.746 691.661 279.714 691.702 279.673L712.766 258.602C712.801 258.567 712.82 258.52 712.82 258.47C712.82 258.421 712.801 258.374 712.766 258.339C696.425 241.628 682.581 222.131 670.424 202.271C670.303 202.075 670.351 201.937 670.568 201.857C714.548 185.297 764.587 179.162 810.486 190.742C839.574 198.075 868.335 216.611 881.138 244.607C882.989 248.653 884.193 253.245 885.429 257.674C885.481 257.861 885.586 258.03 885.732 258.16C885.878 258.29 886.058 258.376 886.251 258.408C890.771 259.177 895.319 260.037 899.894 260.986C906.075 262.261 912.735 264.892 919.874 268.877C926.28 272.453 931.903 276.984 936.742 282.471C936.955 282.709 936.909 282.778 936.604 282.678C928.34 279.884 922.276 277.881 918.412 276.668C888.547 267.284 856.906 262.103 825.566 264.242C810.386 265.277 793.976 267.918 778.193 271.33C744.854 278.54 714.098 291.843 685.924 311.238C662.595 327.303 641.725 346.417 622.473 367.143C615.506 374.65 608.568 382.181 601.66 389.738C594.114 397.993 585.639 403.84 574.536 405.954C559.713 408.783 544.081 409.266 529.013 409.291C520.695 409.303 511.204 409.604 504.059 409.617C493.194 409.634 482.328 409.634 471.459 409.617C470.963 409.617 470.436 409.435 469.991 409.435C430.45 409.414 390.887 409.427 351.301 409.473L392.583 370.831L530.606 370.737C530.649 370.737 530.691 370.719 530.722 370.688C530.752 370.656 530.769 370.613 530.769 370.568L530.744 340.608C530.744 340.562 530.726 340.517 530.693 340.484C530.66 340.451 530.615 340.433 530.569 340.433H312.891C312.853 340.432 312.815 340.42 312.784 340.398C312.752 340.375 312.729 340.344 312.716 340.307C312.695 340.253 312.691 340.196 312.703 340.138L346.922 297.977L430.227 297.971C430.272 297.971 430.315 297.953 430.346 297.92C430.378 297.887 430.396 297.842 430.396 297.796L430.383 267.842C430.383 267.796 430.364 267.751 430.33 267.718C430.296 267.685 430.25 267.667 430.202 267.667H212.355C212.162 267.667 212.016 267.585 211.916 267.422L211.771 267.184L243.575 230.223L322.194 230.217C322.412 230.217 322.52 230.106 322.52 229.885L322.483 200.27C322.478 200.04 322.361 199.925 322.131 199.925C249.583 199.913 177.036 199.913 104.492 199.925C104.149 199.925 103.818 199.651 103.5 199.103L135.097 162.482ZM769.637 206.913C767.134 205.772 764.229 204.686 762.304 202.604C761.292 201.512 761.076 201.65 761.657 203.018C762.105 204.076 762.968 205.406 764.248 207.007C773.501 218.568 787.257 227.934 800.336 234.583C801.729 235.29 803.061 235.677 804.332 235.744C806.791 235.869 809.093 235.526 811.239 234.715C817.951 232.187 824.387 227.313 832.046 225.719C833.608 225.393 835.258 225.588 836.876 225.65C836.935 225.65 836.966 225.623 836.97 225.569V225.563C836.979 225.504 836.954 225.471 836.895 225.462C834.051 224.935 829.388 224.009 822.906 222.683C804.232 218.851 786.203 214.472 769.637 206.913Z" fill="#CCCCCC"/>
<path d="M769.637 206.913C786.203 214.472 804.232 218.851 822.906 222.683C829.389 224.009 834.051 224.935 836.895 225.462C836.954 225.471 836.979 225.504 836.97 225.563V225.569C836.966 225.623 836.935 225.65 836.876 225.65C835.258 225.588 833.608 225.393 832.046 225.719C824.387 227.313 817.951 232.187 811.239 234.715C809.093 235.526 806.791 235.869 804.332 235.744C803.061 235.677 801.729 235.29 800.336 234.583C787.257 227.934 773.501 218.568 764.248 207.007C762.969 205.406 762.105 204.076 761.657 203.018C761.076 201.65 761.292 201.512 762.304 202.604C764.229 204.686 767.134 205.772 769.637 206.913Z" fill="#24286A"/>
</svg>
