<svg width="1577" height="1318" viewBox="0 0 1577 1318" fill="none" xmlns="http://www.w3.org/2000/svg">
<path d="M141.47 0H560.54C568.94 15.76 575.56 32.29 584.6 47.68C584.82 48.06 584.71 48.25 584.27 48.25H166.81C166.517 48.25 166.28 48.3633 166.1 48.59C150.06 68.55 133.213 87.8 115.56 106.34C115.525 106.377 115.501 106.423 115.492 106.474C115.483 106.524 115.489 106.576 115.509 106.623C115.529 106.67 115.563 106.71 115.606 106.738C115.649 106.766 115.699 106.78 115.75 106.78L1086.65 106.68C1086.97 106.68 1087.19 106.83 1087.31 107.13C1099.57 138.32 1112.76 168.34 1128.38 198.67C1137.23 215.87 1146.97 232.92 1158.47 248.5C1159.04 249.273 1159.8 249.6 1160.74 249.48C1203.56 244.053 1246.13 245.467 1288.46 253.72C1356.68 267.03 1418.1 305.48 1448.8 369.66C1448.96 369.993 1449.22 370.21 1449.58 370.31C1506.02 385.94 1561.22 422.56 1574.76 483.54C1575.43 486.58 1576.18 489.607 1577 492.62V495.88C1562.75 498.58 1548.55 501.427 1534.39 504.42C1529.92 505.367 1525.45 506.237 1520.96 507.03C1519.49 507.29 1518.06 508.42 1516.4 507.47C1459.87 475.14 1393.59 464.26 1329.25 468.67C1287.72 471.52 1246.23 478.54 1206.83 492.25C1136.79 516.61 1080.15 562.32 1030.05 616.07C1018.56 628.403 1007.1 640.773 995.68 653.18C992.16 657.013 987.153 661.847 980.66 667.68C965.133 681.647 946.747 690.59 925.5 694.51C908.25 697.69 892.14 699.17 875.15 699.88C852.66 700.83 830 701.25 807.5 701.25C738.81 701.24 670.12 701 601.44 700.96C601.113 700.96 600.843 700.833 600.63 700.58L560.2 652.76C623.307 652.687 686.377 652.667 749.41 652.7C750.12 652.7 750.96 652.99 751.75 652.99C769.077 653.017 786.4 653.017 803.72 652.99C815.11 652.97 830.24 652.49 843.5 652.47C867.52 652.43 892.44 651.66 916.07 647.15C933.77 643.78 947.28 634.46 959.31 621.3C970.323 609.253 981.383 597.247 992.49 585.28C1023.18 552.24 1056.45 521.77 1093.64 496.16C1138.55 465.24 1187.58 444.033 1240.73 432.54C1265.89 427.1 1292.05 422.89 1316.25 421.24C1366.21 417.83 1416.65 426.09 1464.26 441.05C1470.42 442.983 1480.09 446.177 1493.26 450.63C1493.75 450.79 1493.82 450.68 1493.48 450.3C1485.77 441.553 1476.8 434.33 1466.59 428.63C1455.21 422.277 1444.59 418.083 1434.74 416.05C1427.45 414.537 1420.2 413.167 1412.99 411.94C1412.68 411.889 1412.4 411.752 1412.16 411.545C1411.93 411.338 1411.76 411.069 1411.68 410.77C1409.71 403.71 1407.79 396.39 1404.84 389.94C1384.43 345.31 1338.58 315.76 1292.21 304.07C1219.04 285.61 1139.27 295.39 1069.16 321.79C1068.81 321.917 1068.74 322.137 1068.93 322.45C1088.31 354.11 1110.38 385.19 1136.43 411.83C1136.49 411.886 1136.52 411.961 1136.52 412.04C1136.52 412.119 1136.49 412.194 1136.43 412.25L1102.85 445.84C1102.78 445.905 1102.71 445.957 1102.62 445.992C1102.54 446.026 1102.44 446.044 1102.35 446.043C1102.26 446.042 1102.17 446.023 1102.08 445.986C1101.99 445.95 1101.92 445.897 1101.85 445.83C1087.57 431.097 1074.33 415.447 1062.13 398.88C1029.97 355.22 1002.54 308.01 978.56 259.42C978.503 259.3 978.413 259.199 978.299 259.128C978.186 259.057 978.054 259.02 977.92 259.02H215.54H115.32C115.286 259.018 115.251 259.027 115.222 259.044C115.192 259.062 115.169 259.089 115.155 259.12C115.141 259.152 115.137 259.187 115.143 259.221C115.149 259.254 115.166 259.286 115.19 259.31C132.47 278.11 149.13 297.473 165.17 317.4C165.677 318.273 166.203 318.71 166.75 318.71C282.397 318.69 398.047 318.69 513.7 318.71C514.067 318.71 514.253 318.893 514.26 319.26L514.32 366.47C514.32 366.823 514.147 367 513.8 367L388.47 367.01L287.82 367C287.287 367 287.203 367.197 287.57 367.59C305.01 386.39 321.743 405.837 337.77 425.93L338 426.31C338.16 426.57 338.393 426.7 338.7 426.7H685.98C686.057 426.7 686.131 426.73 686.185 426.782C686.239 426.835 686.27 426.906 686.27 426.98L686.29 474.73C686.29 474.804 686.262 474.875 686.211 474.928C686.16 474.98 686.092 475.01 686.02 475.01L553.22 475.02L440.17 475C440.124 474.999 440.08 475.012 440.041 475.036C440.003 475.061 439.973 475.096 439.954 475.138C439.936 475.18 439.931 475.226 439.939 475.271C439.947 475.316 439.968 475.357 440 475.39C460.467 496.65 479.883 518.887 498.25 542.1C498.27 542.12 498.29 542.16 498.31 542.22C498.37 542.353 498.49 542.357 498.67 542.23C498.65 542.323 498.657 542.413 498.69 542.5C498.711 542.558 498.748 542.608 498.798 542.644C498.849 542.68 498.908 542.699 498.97 542.7H845.98C846.054 542.7 846.125 542.729 846.178 542.782C846.23 542.834 846.26 542.906 846.26 542.98L846.3 590.74C846.3 590.812 846.273 590.88 846.224 590.931C846.175 590.982 846.109 591.01 846.04 591.01L626.01 591.16L473.58 590.99C473.247 590.99 472.99 590.847 472.81 590.56C462.81 574.43 451.34 560.31 437.77 544.74C417.31 521.267 395.997 498.593 373.83 476.72C373.623 476.52 373.513 476.277 373.5 475.99L373.47 475.59C373.462 475.431 373.394 475.281 373.278 475.171C373.163 475.061 373.009 475 372.85 475H314.5C314.213 475 313.983 474.883 313.81 474.65C302.17 458.563 287.583 440.497 270.05 420.45C255.26 403.53 238.42 385.19 220.49 367.33C220.27 367.11 220.003 367 219.69 367H142.52C142.227 367 141.99 366.88 141.81 366.64C135.063 357.373 128.773 349.18 122.94 342.06C98.9133 312.753 76.6067 287.73 56.02 266.99C37.5133 248.337 19.0033 229.8 0.49 211.38C0.0633329 210.96 0.15 210.75 0.75 210.75H1008.55C1008.9 210.75 1009.15 210.913 1009.3 211.24C1019.82 234.347 1031.24 256.997 1043.57 279.19C1043.63 279.303 1043.74 279.389 1043.86 279.431C1043.98 279.473 1044.12 279.469 1044.24 279.42C1064.59 271.267 1085.42 264.59 1106.73 259.39C1107.06 259.303 1107.14 259.113 1106.96 258.82C1086.57 225.84 1069.74 190.9 1054.64 155.25C1054.53 154.977 1054.32 154.84 1054.03 154.84L0.76 155.07C0.0933329 155.07 -0.00333372 154.833 0.47 154.36C36.73 118.46 80.08 75.48 116.65 32.65C125.823 21.9033 134.097 11.02 141.47 0Z" fill="#24286A"/>
<path d="M215.54 259.02H977.92C978.054 259.02 978.186 259.057 978.299 259.128C978.413 259.199 978.503 259.3 978.56 259.42C1002.54 308.01 1029.97 355.22 1062.13 398.88C1074.33 415.447 1087.57 431.097 1101.85 445.83C1101.92 445.897 1101.99 445.95 1102.08 445.986C1102.17 446.023 1102.26 446.042 1102.35 446.043C1102.44 446.044 1102.54 446.027 1102.62 445.992C1102.71 445.957 1102.78 445.905 1102.85 445.84L1136.43 412.25C1136.49 412.194 1136.52 412.119 1136.52 412.04C1136.52 411.962 1136.49 411.886 1136.43 411.83C1110.38 385.19 1088.31 354.11 1068.93 322.45C1068.74 322.137 1068.81 321.917 1069.16 321.79C1139.27 295.39 1219.04 285.61 1292.21 304.07C1338.58 315.76 1384.43 345.31 1404.84 389.94C1407.79 396.39 1409.71 403.71 1411.68 410.77C1411.76 411.069 1411.93 411.338 1412.16 411.545C1412.4 411.752 1412.68 411.889 1412.99 411.94C1420.2 413.167 1427.45 414.537 1434.74 416.05C1444.59 418.083 1455.21 422.277 1466.59 428.63C1476.8 434.33 1485.77 441.553 1493.48 450.3C1493.82 450.68 1493.75 450.79 1493.26 450.63C1480.09 446.177 1470.42 442.983 1464.26 441.05C1416.65 426.09 1366.21 417.83 1316.25 421.24C1292.05 422.89 1265.89 427.1 1240.73 432.54C1187.58 444.033 1138.55 465.24 1093.64 496.16C1056.45 521.77 1023.18 552.24 992.49 585.28C981.383 597.247 970.323 609.253 959.31 621.3C947.28 634.46 933.77 643.78 916.07 647.15C892.44 651.66 867.52 652.43 843.5 652.47C830.24 652.49 815.11 652.97 803.72 652.99C786.4 653.017 769.077 653.017 751.75 652.99C750.96 652.99 750.12 652.7 749.41 652.7C686.377 652.667 623.307 652.687 560.2 652.76L626.01 591.16L846.04 591.01C846.109 591.01 846.175 590.982 846.224 590.931C846.273 590.88 846.3 590.812 846.3 590.74L846.26 542.98C846.26 542.906 846.231 542.835 846.178 542.782C846.125 542.73 846.054 542.7 845.98 542.7H498.97C498.908 542.699 498.849 542.68 498.798 542.644C498.748 542.608 498.711 542.558 498.69 542.5C498.657 542.413 498.65 542.323 498.67 542.23L553.22 475.02L686.02 475.01C686.092 475.01 686.16 474.981 686.211 474.928C686.262 474.875 686.29 474.804 686.29 474.73L686.27 426.98C686.27 426.906 686.239 426.835 686.185 426.782C686.131 426.73 686.057 426.7 685.98 426.7H338.7C338.393 426.7 338.16 426.57 338 426.31L337.77 425.93L388.47 367.01L513.8 367C514.147 367 514.32 366.823 514.32 366.47L514.26 319.26C514.253 318.893 514.067 318.71 513.7 318.71C398.047 318.69 282.397 318.69 166.75 318.71C166.203 318.71 165.677 318.273 165.17 317.4L215.54 259.02ZM1227.09 329.85C1223.1 328.03 1218.47 326.3 1215.4 322.98C1213.79 321.24 1213.44 321.46 1214.37 323.64C1215.08 325.327 1216.46 327.447 1218.5 330C1233.25 348.43 1255.18 363.36 1276.03 373.96C1278.25 375.087 1280.37 375.703 1282.4 375.81C1286.32 376.01 1289.99 375.463 1293.41 374.17C1304.11 370.14 1314.37 362.37 1326.58 359.83C1329.07 359.31 1331.7 359.62 1334.28 359.72C1334.37 359.72 1334.42 359.677 1334.43 359.59V359.58C1334.44 359.487 1334.4 359.433 1334.31 359.42C1329.78 358.58 1322.34 357.103 1312.01 354.99C1282.24 348.88 1253.5 341.9 1227.09 329.85Z" fill="#CCCCCC"/>
<path d="M1227.09 329.85C1253.5 341.9 1282.24 348.88 1312.01 354.99C1322.34 357.103 1329.78 358.58 1334.31 359.42C1334.4 359.433 1334.44 359.487 1334.43 359.58V359.59C1334.42 359.677 1334.37 359.72 1334.28 359.72C1331.7 359.62 1329.07 359.31 1326.58 359.83C1314.37 362.37 1304.11 370.14 1293.41 374.17C1289.99 375.463 1286.32 376.01 1282.4 375.81C1280.37 375.703 1278.25 375.087 1276.03 373.96C1255.18 363.36 1233.25 348.43 1218.5 330C1216.46 327.447 1215.08 325.327 1214.37 323.64C1213.44 321.46 1213.79 321.24 1215.4 322.98C1218.47 326.3 1223.1 328.03 1227.09 329.85Z" fill="#24286A"/>
<path d="M992.608 965.25C978.378 951.5 953.058 935.1 932.118 940.74C925.638 942.48 920.988 948.02 924.988 954.73C928.488 960.59 935.308 964.78 941.258 967.75C974.268 984.26 1027.19 998.77 1026.4 1046.13C1025.44 1103.81 970.048 1130.94 919.098 1122.67C898.638 1119.34 879.321 1112.72 861.148 1102.81C852.138 1097.89 842.648 1091.57 835.508 1084.14C835.248 1083.87 835.218 1083.57 835.418 1083.25L868.128 1031.43C868.163 1031.38 868.209 1031.33 868.264 1031.29C868.318 1031.26 868.379 1031.23 868.443 1031.22C868.507 1031.22 868.571 1031.22 868.633 1031.24C868.694 1031.26 868.75 1031.29 868.798 1031.33C886.228 1046.62 913.708 1061.97 937.828 1058.04C942.218 1057.33 948.858 1054.55 948.628 1049.34C948.238 1040.81 931.908 1033.41 925.308 1030.44C898.188 1018.18 857.638 1002.84 848.788 970.5C847.228 964.787 846.704 958.177 847.218 950.67C849.578 915.8 873.808 890.47 906.738 881.3C947.318 869.99 996.118 882.99 1026.1 912.54C1026.19 912.624 1026.24 912.737 1026.26 912.859C1026.27 912.981 1026.24 913.105 1026.18 913.21L993.378 965.16C993.158 965.507 992.901 965.537 992.608 965.25Z" fill="#24286A"/>
<path d="M236.588 1033.68V1115.14C236.588 1115.27 236.535 1115.4 236.441 1115.49C236.347 1115.59 236.22 1115.64 236.088 1115.64H161.088C160.754 1115.64 160.588 1115.47 160.588 1115.14V886.39C160.588 886.057 160.754 885.89 161.088 885.89H236.068C236.195 885.89 236.321 885.927 236.429 885.998C236.537 886.069 236.624 886.171 236.678 886.29L290.988 1006.23C291.308 1006.93 291.628 1006.93 291.948 1006.23L346.358 886.07C346.381 886.017 346.42 885.971 346.47 885.939C346.519 885.908 346.578 885.89 346.638 885.89H422.088C422.421 885.89 422.588 886.057 422.588 886.39V1115.39C422.588 1115.46 422.561 1115.52 422.514 1115.57C422.468 1115.61 422.404 1115.64 422.338 1115.64H347.088C346.594 1115.64 346.348 1115.39 346.348 1114.89L346.338 1034.16C346.338 1033.11 346.131 1033.07 345.718 1034.04L311.188 1115.13C311.123 1115.28 311.016 1115.41 310.879 1115.5C310.742 1115.59 310.582 1115.64 310.418 1115.64H272.308C272.21 1115.64 272.114 1115.61 272.033 1115.56C271.951 1115.51 271.887 1115.43 271.848 1115.34L237.038 1033.59C236.738 1032.89 236.588 1032.92 236.588 1033.68Z" fill="#24286A"/>
<path d="M531.088 948.47V970.06C531.088 970.148 531.122 970.232 531.184 970.293C531.246 970.355 531.33 970.39 531.418 970.39H596.508C596.551 970.39 596.594 970.399 596.634 970.415C596.674 970.432 596.71 970.456 596.741 970.487C596.772 970.517 596.796 970.554 596.812 970.594C596.829 970.634 596.838 970.677 596.838 970.72V1032.31C596.838 1032.4 596.803 1032.48 596.741 1032.54C596.679 1032.61 596.595 1032.64 596.508 1032.64H531.418C531.33 1032.64 531.246 1032.67 531.184 1032.74C531.122 1032.8 531.088 1032.88 531.088 1032.97V1055.4C531.088 1055.45 531.097 1055.49 531.115 1055.53C531.132 1055.57 531.158 1055.61 531.191 1055.64C531.224 1055.67 531.263 1055.7 531.305 1055.71C531.348 1055.73 531.393 1055.73 531.438 1055.73L607.738 1052.16C607.783 1052.16 607.828 1052.16 607.87 1052.18C607.912 1052.19 607.951 1052.22 607.984 1052.25C608.017 1052.28 608.043 1052.32 608.061 1052.36C608.079 1052.4 608.088 1052.45 608.088 1052.49V1115.31C608.088 1115.4 608.053 1115.48 607.991 1115.54C607.929 1115.61 607.845 1115.64 607.758 1115.64H455.418C455.33 1115.64 455.246 1115.61 455.184 1115.54C455.122 1115.48 455.088 1115.4 455.088 1115.31V886.22C455.088 886.133 455.122 886.049 455.184 885.987C455.246 885.925 455.33 885.89 455.418 885.89H607.758C607.845 885.89 607.929 885.925 607.991 885.987C608.053 886.049 608.088 886.133 608.088 886.22V947.81C608.088 947.898 608.053 947.982 607.991 948.043C607.929 948.105 607.845 948.14 607.758 948.14H531.418C531.33 948.14 531.246 948.175 531.184 948.237C531.122 948.299 531.088 948.383 531.088 948.47Z" fill="#24286A"/>
<path d="M713.338 1046.6V1115.14C713.338 1115.47 713.171 1115.64 712.838 1115.64L637.828 1115.63C637.698 1115.63 637.573 1115.58 637.481 1115.48C637.389 1115.39 637.338 1115.26 637.338 1115.13L637.328 886.41C637.328 886.097 637.484 885.94 637.798 885.94C693.618 885.827 729.128 885.817 744.328 885.91C751.601 885.957 759.348 887.123 767.568 889.41C836.938 908.7 842.328 1006.23 775.678 1032.78C775.344 1032.91 775.278 1033.13 775.478 1033.42L831.298 1115.19C831.498 1115.49 831.421 1115.64 831.068 1115.64H749.088C748.926 1115.64 748.767 1115.59 748.629 1115.51C748.491 1115.42 748.38 1115.3 748.308 1115.15L714.108 1046.42C713.594 1045.38 713.338 1045.44 713.338 1046.6ZM713.418 941.48L713.258 984.62C713.258 984.734 713.303 984.844 713.384 984.924C713.464 985.005 713.574 985.05 713.688 985.05L724.258 985.09C727.173 985.101 730.062 984.546 732.76 983.457C735.457 982.368 737.91 980.767 739.979 978.745C742.048 976.722 743.692 974.318 744.818 971.67C745.943 969.022 746.527 966.181 746.538 963.31V963.03C746.559 957.233 744.24 951.664 740.092 947.55C735.943 943.435 730.305 941.112 724.418 941.09L713.848 941.05C713.734 941.05 713.624 941.095 713.544 941.176C713.463 941.257 713.418 941.366 713.418 941.48Z" fill="#24286A"/>
<path d="M1113.13 1080.96L1103.17 1115.32C1103.14 1115.41 1103.08 1115.49 1103.01 1115.55C1102.93 1115.61 1102.83 1115.64 1102.74 1115.64H1027.32C1027.24 1115.64 1027.17 1115.62 1027.11 1115.59C1027.04 1115.55 1026.99 1115.51 1026.95 1115.45C1026.91 1115.39 1026.88 1115.32 1026.87 1115.24C1026.86 1115.17 1026.87 1115.1 1026.9 1115.03L1115.16 886.18C1115.19 886.095 1115.25 886.022 1115.32 885.97C1115.4 885.918 1115.49 885.89 1115.58 885.89H1169.02C1169.11 885.89 1169.2 885.918 1169.27 885.97C1169.35 886.022 1169.41 886.095 1169.44 886.18L1257.71 1115.03C1257.73 1115.1 1257.74 1115.17 1257.73 1115.24C1257.73 1115.32 1257.7 1115.39 1257.66 1115.45C1257.62 1115.51 1257.56 1115.55 1257.5 1115.59C1257.43 1115.62 1257.36 1115.64 1257.29 1115.64H1181.87C1181.77 1115.64 1181.68 1115.61 1181.6 1115.55C1181.52 1115.49 1181.47 1115.41 1181.44 1115.32L1171.48 1080.96C1171.45 1080.87 1171.39 1080.79 1171.32 1080.73C1171.24 1080.67 1171.14 1080.64 1171.05 1080.64H1113.56C1113.46 1080.64 1113.37 1080.67 1113.29 1080.73C1113.21 1080.79 1113.16 1080.87 1113.13 1080.96ZM1131.12 1018.01C1131.11 1018.05 1131.1 1018.1 1131.11 1018.14C1131.12 1018.19 1131.14 1018.23 1131.17 1018.27C1131.19 1018.3 1131.23 1018.33 1131.27 1018.36C1131.31 1018.38 1131.35 1018.39 1131.4 1018.39H1153.2C1153.24 1018.39 1153.29 1018.38 1153.33 1018.36C1153.37 1018.33 1153.4 1018.3 1153.43 1018.27C1153.46 1018.23 1153.48 1018.19 1153.48 1018.14C1153.49 1018.1 1153.49 1018.05 1153.48 1018.01L1142.59 980.65C1142.57 980.586 1142.53 980.53 1142.48 980.489C1142.43 980.449 1142.36 980.427 1142.3 980.427C1142.23 980.427 1142.17 980.449 1142.11 980.489C1142.06 980.53 1142.02 980.586 1142.01 980.65L1131.12 1018.01Z" fill="#24286A"/>
<path d="M1353.76 1055.4L1424.17 1052.15C1424.22 1052.15 1424.28 1052.16 1424.33 1052.17C1424.38 1052.19 1424.42 1052.22 1424.46 1052.26C1424.5 1052.3 1424.53 1052.34 1424.56 1052.39C1424.58 1052.44 1424.59 1052.5 1424.59 1052.55V1115.24C1424.59 1115.35 1424.55 1115.45 1424.47 1115.52C1424.4 1115.6 1424.29 1115.64 1424.19 1115.64L1277.74 1115.63C1277.63 1115.63 1277.53 1115.59 1277.45 1115.51C1277.38 1115.44 1277.34 1115.34 1277.34 1115.23L1277.33 886.29C1277.33 886.184 1277.37 886.082 1277.44 886.007C1277.52 885.932 1277.62 885.89 1277.73 885.89H1352.94C1353.04 885.89 1353.15 885.932 1353.22 886.007C1353.3 886.082 1353.34 886.184 1353.34 886.29V1055C1353.34 1055.05 1353.35 1055.11 1353.37 1055.16C1353.39 1055.21 1353.42 1055.25 1353.46 1055.29C1353.5 1055.33 1353.55 1055.36 1353.6 1055.38C1353.65 1055.39 1353.7 1055.4 1353.76 1055.4Z" fill="#24286A"/>
<path d="M954.528 1317.14H944.768C942.354 1316.92 939.968 1316.67 937.608 1316.39C892.548 1311.12 879.478 1269.24 882.988 1230.39C886.068 1196.23 906.748 1170.81 941.818 1166.99C959.184 1165.1 975.701 1167.89 991.368 1175.37C991.508 1175.44 991.627 1175.54 991.711 1175.67C991.794 1175.81 991.838 1175.96 991.838 1176.12V1189.4C991.838 1189.73 991.671 1189.9 991.338 1189.9L988.798 1189.89C988.458 1189.89 988.154 1189.78 987.888 1189.56C981.108 1183.95 973.148 1180.52 964.008 1179.29C937.978 1175.78 914.858 1183.5 905.658 1209.68C901.448 1221.67 900.648 1234.61 901.078 1247.74C902.008 1276.11 911.698 1304.04 944.848 1306.35C957.314 1307.22 969.171 1305.05 980.418 1299.82C980.547 1299.76 980.656 1299.66 980.732 1299.54C980.808 1299.42 980.848 1299.28 980.848 1299.14L980.838 1254.89C980.838 1254.39 980.588 1254.14 980.088 1254.14H955.338C955.271 1254.14 955.208 1254.11 955.161 1254.07C955.114 1254.02 955.088 1253.96 955.088 1253.89V1244.39C955.088 1244.32 955.114 1244.26 955.161 1244.21C955.208 1244.17 955.271 1244.14 955.338 1244.14H997.088C997.421 1244.14 997.588 1244.31 997.588 1244.64V1306.35C997.588 1306.63 997.461 1306.83 997.208 1306.95C983.348 1313.74 969.778 1316.1 954.528 1317.14Z" fill="#24286A"/>
<path d="M1381.78 1317.14H1373.56C1371.16 1316.85 1368.76 1316.52 1366.38 1316.15C1321.84 1309.36 1308.1 1266.77 1313.21 1227.13C1317.46 1194.14 1340.66 1168.76 1374.92 1166.77C1390.95 1165.84 1406.85 1168.34 1420.39 1177.33C1420.69 1177.53 1420.84 1177.81 1420.84 1178.18V1190.4C1420.84 1190.73 1420.67 1190.9 1420.33 1190.9L1416.89 1190.89C1416.6 1190.89 1416.34 1190.8 1416.12 1190.62C1403.03 1180.14 1388.28 1176.19 1371.87 1178.76C1348.45 1182.43 1335.5 1200.23 1331.77 1222.4C1325.06 1262.3 1336.77 1314.61 1390.58 1304.74C1401.73 1302.69 1411.27 1297.64 1419.19 1289.57C1419.46 1289.3 1419.79 1289.16 1420.18 1289.15L1422.34 1289.14C1422.68 1289.14 1422.85 1289.31 1422.85 1289.64L1422.84 1301.62C1422.84 1301.78 1422.8 1301.93 1422.73 1302.07C1422.67 1302.21 1422.57 1302.33 1422.45 1302.42C1412.14 1310.49 1400.43 1315.19 1387.33 1316.51C1385.47 1316.7 1383.62 1316.91 1381.78 1317.14Z" fill="#24286A"/>
<path d="M196.908 1179.14H153.008C152.896 1179.14 152.789 1179.1 152.711 1179.02C152.632 1178.94 152.588 1178.83 152.588 1178.72V1168.56C152.588 1168.51 152.598 1168.45 152.62 1168.4C152.641 1168.35 152.672 1168.3 152.711 1168.26C152.75 1168.22 152.796 1168.19 152.847 1168.17C152.898 1168.15 152.952 1168.14 153.008 1168.14H258.168C258.223 1168.14 258.277 1168.15 258.328 1168.17C258.379 1168.19 258.426 1168.22 258.465 1168.26C258.504 1168.3 258.535 1168.35 258.556 1168.4C258.577 1168.45 258.588 1168.51 258.588 1168.56L258.598 1178.72C258.598 1178.83 258.553 1178.94 258.475 1179.02C258.396 1179.1 258.289 1179.14 258.178 1179.14H214.758C214.646 1179.14 214.539 1179.18 214.461 1179.26C214.382 1179.34 214.338 1179.45 214.338 1179.56L214.328 1315.22C214.328 1315.33 214.283 1315.44 214.205 1315.52C214.126 1315.6 214.019 1315.64 213.908 1315.64L197.758 1315.62C197.646 1315.62 197.539 1315.58 197.461 1315.5C197.382 1315.42 197.338 1315.31 197.338 1315.2L197.328 1179.56C197.328 1179.45 197.283 1179.34 197.205 1179.26C197.126 1179.18 197.019 1179.14 196.908 1179.14Z" fill="#24286A"/>
<path d="M351.378 1248.67C369.604 1282.28 381.044 1303.57 385.698 1312.56C385.951 1313.05 385.968 1313.95 385.748 1315.26C385.701 1315.51 385.548 1315.64 385.288 1315.64H370.288C369.928 1315.64 369.664 1315.48 369.498 1315.16L335.808 1251.15C335.648 1250.84 335.394 1250.7 335.048 1250.75C332.781 1251.03 330.961 1251.17 329.588 1251.16C320.168 1251.11 310.748 1251.11 301.328 1251.16C301.001 1251.16 300.838 1251.32 300.838 1251.65V1315.14C300.838 1315.47 300.671 1315.64 300.338 1315.64H284.338C284.171 1315.64 284.088 1315.56 284.088 1315.39V1168.65C284.088 1168.33 284.248 1168.17 284.568 1168.17C299.694 1168.11 314.781 1168.1 329.828 1168.13C352.718 1168.19 374.788 1177.05 377.728 1202.84C380.148 1224.07 370.588 1239.52 351.628 1247.94C351.274 1248.09 351.191 1248.34 351.378 1248.67ZM326.588 1240.55C338.988 1240.42 352.698 1237.93 358.128 1225.18C361.138 1218.1 361.478 1208.1 359.748 1200.16C356.238 1183.96 341.318 1179.54 326.828 1179.43C318.368 1179.37 309.871 1179.36 301.338 1179.41C301.004 1179.41 300.838 1179.57 300.838 1179.9V1240.13C300.838 1240.46 301.004 1240.63 301.338 1240.63C309.758 1240.67 318.174 1240.64 326.588 1240.55Z" fill="#24286A"/>
<path d="M430.668 1272.79L417.118 1315.2C417.024 1315.49 416.824 1315.64 416.518 1315.64H403.878C403.604 1315.64 403.451 1315.5 403.418 1315.23C403.211 1313.46 403.224 1312.25 403.458 1311.58C420.078 1263.99 436.734 1216.27 453.428 1168.44C453.457 1168.35 453.514 1168.28 453.589 1168.22C453.664 1168.17 453.755 1168.14 453.848 1168.14H473.568C473.854 1168.14 474.048 1168.28 474.148 1168.55C490.688 1216.28 507.228 1264 523.768 1311.71C523.954 1312.24 523.951 1313.42 523.758 1315.23C523.724 1315.5 523.571 1315.64 523.298 1315.64H507.558C507.426 1315.64 507.299 1315.6 507.193 1315.52C507.087 1315.44 507.008 1315.33 506.968 1315.21L493.088 1272.91C492.968 1272.56 492.724 1272.39 492.358 1272.39H431.208C430.928 1272.39 430.748 1272.52 430.668 1272.79ZM464.768 1186.86C464.747 1186.79 464.705 1186.74 464.65 1186.7C464.594 1186.65 464.527 1186.63 464.458 1186.63L459.328 1186.65C459.258 1186.65 459.191 1186.67 459.135 1186.72C459.08 1186.76 459.039 1186.81 459.018 1186.88L434.698 1261.21C434.682 1261.26 434.678 1261.31 434.687 1261.36C434.695 1261.42 434.716 1261.47 434.747 1261.51C434.779 1261.55 434.819 1261.58 434.866 1261.61C434.913 1261.63 434.965 1261.64 435.018 1261.64H488.768C488.82 1261.64 488.872 1261.63 488.919 1261.61C488.966 1261.58 489.007 1261.55 489.038 1261.51C489.069 1261.47 489.09 1261.42 489.099 1261.36C489.107 1261.31 489.103 1261.26 489.088 1261.21L464.768 1186.86Z" fill="#24286A"/>
<path d="M662.288 1255.13C658.178 1296.35 631.488 1315.48 592.068 1315.61C577.728 1315.66 563.401 1315.66 549.088 1315.62C549.021 1315.62 548.958 1315.59 548.911 1315.55C548.864 1315.5 548.838 1315.44 548.838 1315.37V1169.16C548.838 1168.89 548.944 1168.64 549.133 1168.45C549.323 1168.26 549.58 1168.15 549.848 1168.15C564.934 1168.12 580.178 1168.13 595.578 1168.16C604.018 1168.18 612.871 1169.67 622.138 1172.62C659.078 1184.37 665.608 1221.71 662.288 1255.13ZM600.338 1303.89C629.528 1301.09 642.548 1282.37 644.878 1254.64C646.428 1236.3 645.808 1211.43 633.758 1196.26C624.148 1184.15 608.828 1179.87 593.918 1179.5C586.238 1179.31 576.944 1179.3 566.038 1179.45C565.738 1179.46 565.588 1179.61 565.588 1179.91V1304.13C565.588 1304.45 565.748 1304.61 566.068 1304.62C577.518 1304.7 588.758 1305.01 600.338 1303.89Z" fill="#24286A"/>
<path d="M708.418 1168.14H691.998C691.771 1168.14 691.588 1168.32 691.588 1168.55V1315.23C691.588 1315.46 691.771 1315.64 691.998 1315.64H708.418C708.644 1315.64 708.828 1315.46 708.828 1315.23V1168.55C708.828 1168.32 708.644 1168.14 708.418 1168.14Z" fill="#24286A"/>
<path d="M760.588 1192.26V1315.27C760.588 1315.37 760.549 1315.46 760.479 1315.53C760.41 1315.6 760.316 1315.64 760.218 1315.64H747.208C747.11 1315.64 747.015 1315.6 746.946 1315.53C746.877 1315.46 746.838 1315.37 746.838 1315.27V1168.51C746.838 1168.41 746.877 1168.32 746.946 1168.25C747.015 1168.18 747.11 1168.14 747.208 1168.14H768.898C768.962 1168.14 769.025 1168.16 769.082 1168.19C769.138 1168.22 769.185 1168.26 769.218 1168.32L836.168 1281.72C836.201 1281.78 836.248 1281.82 836.304 1281.85C836.36 1281.88 836.423 1281.9 836.488 1281.9L841.968 1281.89C842.066 1281.89 842.16 1281.85 842.229 1281.78C842.299 1281.71 842.338 1281.62 842.338 1281.52V1168.51C842.338 1168.41 842.377 1168.32 842.446 1168.25C842.515 1168.18 842.61 1168.14 842.708 1168.14H855.718C855.816 1168.14 855.91 1168.18 855.979 1168.25C856.049 1168.32 856.088 1168.41 856.088 1168.51V1315.27C856.088 1315.37 856.049 1315.46 855.979 1315.53C855.91 1315.6 855.816 1315.64 855.718 1315.64H839.638C839.573 1315.64 839.51 1315.62 839.454 1315.59C839.398 1315.56 839.351 1315.52 839.318 1315.46L766.488 1192.08C766.455 1192.02 766.408 1191.98 766.352 1191.95C766.295 1191.92 766.232 1191.9 766.168 1191.9L760.958 1191.89C760.86 1191.89 760.765 1191.93 760.696 1192C760.627 1192.07 760.588 1192.16 760.588 1192.26Z" fill="#24286A"/>
<path d="M1107.72 1238.39H1160.96C1161.01 1238.39 1161.06 1238.4 1161.1 1238.42C1161.15 1238.44 1161.19 1238.47 1161.23 1238.5C1161.26 1238.54 1161.29 1238.58 1161.31 1238.62C1161.33 1238.67 1161.34 1238.72 1161.34 1238.77L1161.35 1248.76C1161.35 1248.86 1161.31 1248.96 1161.24 1249.03C1161.17 1249.1 1161.07 1249.14 1160.97 1249.14H1107.72C1107.62 1249.14 1107.52 1249.18 1107.45 1249.25C1107.38 1249.32 1107.34 1249.42 1107.34 1249.52V1315.26C1107.34 1315.31 1107.33 1315.36 1107.31 1315.41C1107.29 1315.45 1107.26 1315.49 1107.23 1315.53C1107.19 1315.56 1107.15 1315.59 1107.1 1315.61C1107.06 1315.63 1107.01 1315.64 1106.96 1315.64H1090.72C1090.67 1315.64 1090.62 1315.63 1090.57 1315.61C1090.53 1315.59 1090.48 1315.56 1090.45 1315.53C1090.41 1315.49 1090.39 1315.45 1090.37 1315.41C1090.35 1315.36 1090.34 1315.31 1090.34 1315.26V1168.52C1090.34 1168.47 1090.35 1168.42 1090.37 1168.37C1090.39 1168.33 1090.41 1168.29 1090.45 1168.25C1090.48 1168.22 1090.53 1168.19 1090.57 1168.17C1090.62 1168.15 1090.67 1168.14 1090.72 1168.14H1178.21C1178.26 1168.14 1178.31 1168.15 1178.35 1168.17C1178.4 1168.19 1178.44 1168.22 1178.48 1168.25C1178.51 1168.29 1178.54 1168.33 1178.56 1168.37C1178.58 1168.42 1178.59 1168.47 1178.59 1168.52V1179.26C1178.59 1179.31 1178.58 1179.36 1178.56 1179.41C1178.54 1179.45 1178.51 1179.49 1178.48 1179.53C1178.44 1179.56 1178.4 1179.59 1178.35 1179.61C1178.31 1179.63 1178.26 1179.64 1178.21 1179.64H1107.72C1107.62 1179.64 1107.52 1179.68 1107.45 1179.75C1107.38 1179.82 1107.34 1179.92 1107.34 1180.02V1238.01C1107.34 1238.11 1107.38 1238.21 1107.45 1238.28C1107.52 1238.35 1107.62 1238.39 1107.72 1238.39Z" fill="#24286A"/>
<path d="M1275.34 1179.14H1201.34C1201 1179.14 1200.83 1178.97 1200.84 1178.64L1200.85 1168.64C1200.85 1168.51 1200.9 1168.38 1200.99 1168.29C1201.08 1168.19 1201.21 1168.14 1201.34 1168.14H1293.59C1293.92 1168.14 1294.09 1168.31 1294.09 1168.64V1182.84C1294.09 1183.13 1294 1183.39 1293.84 1183.63C1267.42 1221.83 1240.99 1260.02 1214.57 1298.21C1213.04 1300.42 1213.12 1301.94 1213.39 1304.46C1213.41 1304.75 1213.57 1304.89 1213.86 1304.89H1292.59C1292.92 1304.89 1293.09 1305.06 1293.09 1305.39V1315.14C1293.09 1315.47 1292.92 1315.64 1292.59 1315.64H1195.09C1194.75 1315.64 1194.59 1315.47 1194.59 1315.14V1301.66C1194.59 1301.33 1194.69 1301.01 1194.88 1300.74L1275.61 1184.59C1275.76 1184.38 1275.84 1184.12 1275.84 1183.87V1179.64C1275.84 1179.31 1275.67 1179.14 1275.34 1179.14Z" fill="#24286A"/>
</svg>
