<svg width="2326" height="440" viewBox="0 0 2326 440" fill="none" xmlns="http://www.w3.org/2000/svg">
<path d="M840.02 88C825.79 74.25 800.47 57.85 779.53 63.49C773.05 65.23 768.4 70.77 772.4 77.48C775.9 83.34 782.72 87.53 788.67 90.5C821.68 107.01 874.6 121.52 873.81 168.88C872.85 226.56 817.46 253.69 766.51 245.42C746.05 242.093 726.733 235.473 708.56 225.56C699.55 220.64 690.06 214.32 682.92 206.89C682.66 206.617 682.63 206.32 682.83 206L715.54 154.18C715.575 154.125 715.622 154.078 715.676 154.043C715.731 154.008 715.792 153.984 715.856 153.975C715.919 153.965 715.984 153.97 716.045 153.988C716.106 154.006 716.163 154.037 716.21 154.08C733.64 169.37 761.12 184.72 785.24 180.79C789.63 180.08 796.27 177.3 796.04 172.09C795.65 163.56 779.32 156.16 772.72 153.19C745.6 140.93 705.05 125.59 696.2 93.25C694.64 87.5366 694.117 80.9267 694.63 73.42C696.99 38.55 721.22 13.22 754.15 4.04996C794.73 -7.26004 843.53 5.74001 873.51 35.29C873.598 35.3741 873.654 35.4865 873.669 35.6086C873.683 35.7306 873.656 35.8547 873.59 35.96L840.79 87.91C840.57 88.2567 840.313 88.2866 840.02 88Z" fill="#24286A"/>
<path d="M84 156.43V237.89C84 238.023 83.9473 238.15 83.8535 238.244C83.7598 238.337 83.6326 238.39 83.5 238.39H8.5C8.16667 238.39 8 238.223 8 237.89V9.14014C8 8.80681 8.16667 8.64014 8.5 8.64014H83.48C83.6077 8.63962 83.7332 8.67713 83.8415 8.74811C83.9497 8.8191 84.0361 8.92055 84.09 9.04017L138.4 128.98C138.72 129.68 139.04 129.68 139.36 128.98L193.77 8.82013C193.793 8.7668 193.832 8.72141 193.882 8.68946C193.932 8.6575 193.99 8.64036 194.05 8.64014H269.5C269.833 8.64014 270 8.80681 270 9.14014V238.14C270 238.206 269.974 238.27 269.927 238.317C269.88 238.364 269.816 238.39 269.75 238.39H194.5C194.007 238.39 193.76 238.14 193.76 237.64L193.75 156.91C193.75 155.857 193.543 155.817 193.13 156.79L158.6 237.88C158.536 238.031 158.428 238.16 158.291 238.25C158.155 238.341 157.994 238.39 157.83 238.39H119.72C119.622 238.39 119.527 238.362 119.445 238.309C119.363 238.256 119.299 238.18 119.26 238.09L84.45 156.34C84.15 155.64 84 155.67 84 156.43Z" fill="#24286A"/>
<path d="M378.5 71.2202V92.8101C378.5 92.8976 378.535 92.9816 378.597 93.0435C378.659 93.1053 378.742 93.1401 378.83 93.1401H443.92C443.963 93.1401 444.006 93.1487 444.046 93.1653C444.086 93.1819 444.123 93.2062 444.153 93.2368C444.184 93.2675 444.208 93.3038 444.225 93.3439C444.241 93.3839 444.25 93.4268 444.25 93.4702V155.06C444.25 155.148 444.215 155.232 444.153 155.293C444.091 155.355 444.008 155.39 443.92 155.39H378.83C378.742 155.39 378.659 155.425 378.597 155.487C378.535 155.549 378.5 155.633 378.5 155.72V178.15C378.5 178.195 378.509 178.24 378.527 178.281C378.545 178.323 378.571 178.36 378.604 178.391C378.636 178.422 378.675 178.446 378.718 178.461C378.76 178.476 378.805 178.483 378.85 178.48L455.15 174.91C455.195 174.907 455.24 174.914 455.282 174.929C455.325 174.945 455.364 174.968 455.396 174.999C455.429 175.03 455.455 175.068 455.473 175.109C455.491 175.15 455.5 175.195 455.5 175.24V238.06C455.5 238.148 455.465 238.232 455.403 238.293C455.341 238.355 455.258 238.39 455.17 238.39H302.83C302.742 238.39 302.659 238.355 302.597 238.293C302.535 238.232 302.5 238.148 302.5 238.06V8.97015C302.5 8.88263 302.535 8.7987 302.597 8.73682C302.659 8.67493 302.742 8.64014 302.83 8.64014H455.17C455.258 8.64014 455.341 8.67493 455.403 8.73682C455.465 8.7987 455.5 8.88263 455.5 8.97015V70.5601C455.5 70.6476 455.465 70.7316 455.403 70.7935C455.341 70.8553 455.258 70.8901 455.17 70.8901H378.83C378.742 70.8901 378.659 70.9249 378.597 70.9868C378.535 71.0487 378.5 71.1326 378.5 71.2202Z" fill="#24286A"/>
<path d="M560.75 169.35V237.89C560.75 238.223 560.583 238.39 560.25 238.39L485.24 238.38C485.11 238.38 484.985 238.327 484.893 238.234C484.802 238.14 484.75 238.013 484.75 237.88L484.74 9.16016C484.74 8.84683 484.897 8.69013 485.21 8.69013C541.03 8.5768 576.54 8.56683 591.74 8.66016C599.013 8.70683 606.76 9.8735 614.98 12.1602C684.35 31.4502 689.74 128.98 623.09 155.53C622.757 155.663 622.69 155.877 622.89 156.17L678.71 237.94C678.91 238.24 678.833 238.39 678.48 238.39H596.5C596.338 238.39 596.179 238.343 596.042 238.257C595.904 238.17 595.792 238.047 595.72 237.9L561.52 169.17C561.007 168.13 560.75 168.19 560.75 169.35ZM560.83 64.2302L560.67 107.37C560.67 107.484 560.715 107.594 560.796 107.674C560.877 107.755 560.986 107.8 561.1 107.8L571.67 107.84C574.585 107.851 577.474 107.296 580.172 106.207C582.869 105.118 585.323 103.517 587.392 101.495C589.461 99.472 591.105 97.068 592.23 94.4198C593.355 91.7716 593.94 88.9309 593.95 86.0601V85.7802C593.971 79.9827 591.652 74.4142 587.504 70.2997C583.356 66.1852 577.718 63.8616 571.83 63.8402L561.26 63.8001C561.146 63.8001 561.037 63.8455 560.956 63.9261C560.875 64.0067 560.83 64.1161 560.83 64.2302Z" fill="#24286A"/>
<path d="M960.54 203.71L950.58 238.07C950.552 238.163 950.495 238.244 950.418 238.301C950.341 238.359 950.247 238.39 950.15 238.39H874.73C874.657 238.39 874.586 238.372 874.521 238.338C874.457 238.304 874.401 238.255 874.36 238.195C874.319 238.135 874.293 238.066 874.284 237.994C874.275 237.922 874.284 237.848 874.31 237.78L962.57 8.93011C962.603 8.84493 962.66 8.77163 962.735 8.71985C962.81 8.66806 962.899 8.64026 962.99 8.64014H1016.43C1016.52 8.64026 1016.61 8.66806 1016.69 8.71985C1016.76 8.77163 1016.82 8.84493 1016.85 8.93011L1105.12 237.78C1105.15 237.848 1105.16 237.922 1105.15 237.994C1105.14 238.066 1105.11 238.135 1105.07 238.195C1105.03 238.255 1104.97 238.304 1104.91 238.338C1104.84 238.372 1104.77 238.39 1104.7 238.39H1029.28C1029.18 238.39 1029.09 238.359 1029.01 238.301C1028.93 238.244 1028.88 238.163 1028.85 238.07L1018.89 203.71C1018.86 203.618 1018.81 203.537 1018.73 203.479C1018.65 203.422 1018.56 203.39 1018.46 203.39H960.97C960.874 203.39 960.78 203.422 960.702 203.479C960.625 203.537 960.568 203.618 960.54 203.71ZM978.53 140.76C978.518 140.804 978.516 140.85 978.524 140.895C978.532 140.939 978.551 140.982 978.578 141.018C978.605 141.055 978.64 141.085 978.68 141.106C978.72 141.127 978.765 141.139 978.81 141.14H1000.61C1000.66 141.139 1000.7 141.127 1000.74 141.106C1000.78 141.085 1000.82 141.055 1000.84 141.018C1000.87 140.982 1000.89 140.939 1000.9 140.895C1000.9 140.85 1000.9 140.804 1000.89 140.76L990 103.4C989.983 103.336 989.946 103.28 989.893 103.239C989.841 103.199 989.776 103.177 989.71 103.177C989.644 103.177 989.58 103.199 989.527 103.239C989.475 103.28 989.437 103.336 989.42 103.4L978.53 140.76Z" fill="#24286A"/>
<path d="M1201.17 178.15L1271.58 174.9C1271.63 174.897 1271.69 174.906 1271.74 174.925C1271.79 174.944 1271.84 174.973 1271.88 175.01C1271.92 175.047 1271.95 175.092 1271.97 175.142C1271.99 175.192 1272 175.246 1272 175.3V237.99C1272 238.096 1271.96 238.198 1271.88 238.273C1271.81 238.348 1271.71 238.39 1271.6 238.39L1125.15 238.38C1125.04 238.38 1124.94 238.338 1124.87 238.263C1124.79 238.188 1124.75 238.086 1124.75 237.98L1124.74 9.04016C1124.74 8.93407 1124.78 8.83234 1124.86 8.75732C1124.93 8.68231 1125.03 8.64014 1125.14 8.64014H1200.35C1200.46 8.64014 1200.56 8.68231 1200.63 8.75732C1200.71 8.83234 1200.75 8.93407 1200.75 9.04016V177.75C1200.75 177.804 1200.76 177.858 1200.78 177.908C1200.8 177.958 1200.83 178.003 1200.87 178.04C1200.91 178.078 1200.96 178.107 1201.01 178.126C1201.06 178.144 1201.12 178.153 1201.17 178.15Z" fill="#24286A"/>
<path d="M801.94 439.89H792.18C789.767 439.67 787.38 439.42 785.02 439.14C739.96 433.87 726.89 391.99 730.4 353.14C733.48 318.98 754.16 293.56 789.23 289.74C806.597 287.847 823.113 290.64 838.78 298.12C838.921 298.185 839.04 298.291 839.123 298.424C839.207 298.557 839.251 298.712 839.25 298.87V312.15C839.25 312.484 839.083 312.65 838.75 312.65L836.21 312.64C835.87 312.64 835.567 312.53 835.3 312.31C828.52 306.697 820.56 303.274 811.42 302.04C785.39 298.53 762.27 306.25 753.07 332.43C748.86 344.42 748.06 357.36 748.49 370.49C749.42 398.86 759.11 426.79 792.26 429.1C804.727 429.973 816.583 427.797 827.83 422.57C827.959 422.507 828.068 422.409 828.144 422.289C828.22 422.169 828.26 422.031 828.26 421.89L828.25 377.64C828.25 377.14 828 376.89 827.5 376.89H802.75C802.684 376.89 802.62 376.864 802.573 376.817C802.526 376.77 802.5 376.706 802.5 376.64V367.14C802.5 367.074 802.526 367.01 802.573 366.963C802.62 366.917 802.684 366.89 802.75 366.89H844.5C844.833 366.89 845 367.057 845 367.39V429.1C845 429.38 844.873 429.58 844.62 429.7C830.76 436.49 817.19 438.85 801.94 439.89Z" fill="#24286A"/>
<path d="M1229.19 439.89H1220.97C1218.57 439.597 1216.18 439.267 1213.79 438.9C1169.25 432.11 1155.51 389.52 1160.62 349.88C1164.87 316.89 1188.07 291.51 1222.33 289.52C1238.36 288.59 1254.26 291.09 1267.8 300.08C1268.1 300.28 1268.25 300.563 1268.25 300.93V313.15C1268.25 313.483 1268.08 313.65 1267.74 313.65L1264.3 313.64C1264.01 313.64 1263.76 313.55 1263.53 313.37C1250.44 302.89 1235.69 298.937 1219.28 301.51C1195.86 305.18 1182.91 322.98 1179.18 345.15C1172.47 385.05 1184.18 437.36 1237.99 427.49C1249.14 425.443 1258.68 420.387 1266.6 412.32C1266.87 412.047 1267.2 411.907 1267.59 411.9L1269.75 411.89C1270.09 411.89 1270.26 412.057 1270.26 412.39L1270.25 424.37C1270.25 424.525 1270.21 424.678 1270.15 424.817C1270.08 424.956 1269.98 425.077 1269.86 425.17C1259.55 433.243 1247.85 437.94 1234.74 439.26C1232.89 439.447 1231.04 439.657 1229.19 439.89Z" fill="#24286A"/>
<path d="M44.32 301.89H0.419998C0.308607 301.89 0.201782 301.846 0.123016 301.767C0.0442511 301.688 0 301.581 0 301.47V291.31C0 291.255 0.0108602 291.2 0.0319672 291.149C0.0530741 291.098 0.0840158 291.052 0.123016 291.013C0.162017 290.974 0.208321 290.943 0.259277 290.922C0.310234 290.901 0.364843 290.89 0.419998 290.89H105.58C105.635 290.89 105.69 290.901 105.741 290.922C105.792 290.943 105.838 290.974 105.877 291.013C105.916 291.052 105.947 291.098 105.968 291.149C105.989 291.2 106 291.255 106 291.31L106.01 301.47C106.01 301.581 105.966 301.688 105.887 301.767C105.808 301.846 105.701 301.89 105.59 301.89H62.17C62.0586 301.89 61.9518 301.934 61.873 302.013C61.7943 302.092 61.75 302.199 61.75 302.31L61.74 437.97C61.74 438.081 61.6958 438.188 61.617 438.267C61.5382 438.346 61.4314 438.39 61.32 438.39L45.17 438.37C45.0586 438.37 44.9518 438.326 44.873 438.247C44.7943 438.168 44.75 438.062 44.75 437.95L44.74 302.31C44.74 302.199 44.6958 302.092 44.617 302.013C44.5382 301.934 44.4314 301.89 44.32 301.89Z" fill="#24286A"/>
<path d="M198.79 371.42C217.017 405.027 228.457 426.324 233.11 435.31C233.363 435.804 233.38 436.703 233.16 438.01C233.113 438.263 232.96 438.39 232.7 438.39H217.7C217.34 438.39 217.077 438.23 216.91 437.91L183.22 373.9C183.06 373.587 182.807 373.453 182.46 373.5C180.193 373.78 178.373 373.917 177 373.91C167.58 373.864 158.16 373.864 148.74 373.91C148.413 373.91 148.25 374.074 148.25 374.4V437.89C148.25 438.224 148.083 438.39 147.75 438.39H131.75C131.583 438.39 131.5 438.307 131.5 438.14V291.4C131.5 291.08 131.66 290.92 131.98 290.92C147.107 290.86 162.193 290.847 177.24 290.88C200.13 290.94 222.2 299.8 225.14 325.59C227.56 346.82 218 362.27 199.04 370.69C198.687 370.844 198.603 371.087 198.79 371.42ZM174 363.3C186.4 363.17 200.11 360.68 205.54 347.93C208.55 340.85 208.89 330.85 207.16 322.91C203.65 306.71 188.73 302.29 174.24 302.18C165.78 302.12 157.283 302.114 148.75 302.16C148.417 302.16 148.25 302.324 148.25 302.65V362.88C148.25 363.213 148.417 363.38 148.75 363.38C157.17 363.42 165.587 363.394 174 363.3Z" fill="#24286A"/>
<path d="M278.08 395.54L264.53 437.95C264.437 438.244 264.237 438.39 263.93 438.39H251.29C251.017 438.39 250.863 438.253 250.83 437.98C250.623 436.213 250.637 434.997 250.87 434.33C267.49 386.737 284.147 339.024 300.84 291.19C300.869 291.102 300.926 291.026 301.001 290.972C301.077 290.918 301.167 290.89 301.26 290.89H320.98C321.267 290.89 321.46 291.027 321.56 291.3C338.1 339.027 354.64 386.747 371.18 434.46C371.367 434.993 371.363 436.167 371.17 437.98C371.137 438.253 370.983 438.39 370.71 438.39H354.97C354.839 438.39 354.711 438.349 354.605 438.271C354.499 438.194 354.42 438.085 354.38 437.96L340.5 395.66C340.38 395.313 340.137 395.14 339.77 395.14H278.62C278.34 395.14 278.16 395.274 278.08 395.54ZM312.18 309.61C312.159 309.544 312.118 309.486 312.062 309.445C312.006 309.404 311.939 309.381 311.87 309.38L306.74 309.4C306.671 309.401 306.603 309.424 306.548 309.465C306.492 309.506 306.451 309.564 306.43 309.63L282.11 383.96C282.094 384.01 282.09 384.063 282.099 384.115C282.108 384.166 282.128 384.215 282.16 384.257C282.191 384.299 282.232 384.333 282.279 384.356C282.326 384.379 282.378 384.391 282.43 384.39H336.18C336.232 384.391 336.284 384.379 336.331 384.356C336.378 384.333 336.419 384.299 336.45 384.257C336.481 384.215 336.502 384.166 336.511 384.115C336.52 384.063 336.516 384.01 336.5 383.96L312.18 309.61Z" fill="#24286A"/>
<path d="M509.7 377.88C505.59 419.1 478.9 438.23 439.48 438.36C425.14 438.407 410.813 438.41 396.5 438.37C396.434 438.37 396.37 438.344 396.323 438.297C396.276 438.25 396.25 438.186 396.25 438.12V291.91C396.25 291.642 396.356 291.385 396.546 291.196C396.735 291.006 396.992 290.9 397.26 290.9C412.347 290.873 427.59 290.877 442.99 290.91C451.43 290.93 460.283 292.417 469.55 295.37C506.49 307.12 513.02 344.46 509.7 377.88ZM447.75 426.64C476.94 423.84 489.96 405.12 492.29 377.39C493.84 359.05 493.22 334.18 481.17 319.01C471.56 306.9 456.24 302.62 441.33 302.25C433.65 302.063 424.357 302.047 413.45 302.2C413.15 302.207 413 302.36 413 302.66V426.88C413 427.2 413.16 427.363 413.48 427.37C424.93 427.45 436.17 427.76 447.75 426.64Z" fill="#24286A"/>
<path d="M555.83 290.89H539.41C539.184 290.89 539 291.074 539 291.3V437.98C539 438.207 539.184 438.39 539.41 438.39H555.83C556.056 438.39 556.24 438.207 556.24 437.98V291.3C556.24 291.074 556.056 290.89 555.83 290.89Z" fill="#24286A"/>
<path d="M608 315.01V438.02C608 438.118 607.961 438.212 607.892 438.282C607.822 438.351 607.728 438.39 607.63 438.39H594.62C594.522 438.39 594.428 438.351 594.358 438.282C594.289 438.212 594.25 438.118 594.25 438.02V291.26C594.25 291.162 594.289 291.068 594.358 290.999C594.428 290.929 594.522 290.89 594.62 290.89H616.31C616.374 290.89 616.438 290.906 616.494 290.938C616.55 290.969 616.597 291.015 616.63 291.07L683.58 404.47C683.613 404.525 683.66 404.571 683.716 404.603C683.772 404.634 683.836 404.651 683.9 404.65L689.38 404.64C689.478 404.64 689.572 404.601 689.642 404.532C689.711 404.462 689.75 404.368 689.75 404.27V291.26C689.75 291.162 689.789 291.068 689.858 290.999C689.928 290.929 690.022 290.89 690.12 290.89H703.13C703.228 290.89 703.322 290.929 703.392 290.999C703.461 291.068 703.5 291.162 703.5 291.26V438.02C703.5 438.118 703.461 438.212 703.392 438.282C703.322 438.351 703.228 438.39 703.13 438.39H687.05C686.986 438.391 686.922 438.374 686.866 438.343C686.81 438.311 686.763 438.265 686.73 438.21L613.9 314.83C613.867 314.775 613.82 314.729 613.764 314.698C613.708 314.666 613.644 314.65 613.58 314.65L608.37 314.64C608.272 314.64 608.178 314.679 608.108 314.749C608.039 314.818 608 314.912 608 315.01Z" fill="#24286A"/>
<path d="M955.13 361.14H1008.37C1008.42 361.14 1008.47 361.15 1008.52 361.169C1008.56 361.188 1008.6 361.216 1008.64 361.251C1008.67 361.287 1008.7 361.329 1008.72 361.375C1008.74 361.421 1008.75 361.47 1008.75 361.52L1008.76 371.51C1008.76 371.611 1008.72 371.708 1008.65 371.779C1008.58 371.85 1008.48 371.89 1008.38 371.89H955.13C955.029 371.89 954.933 371.93 954.861 372.001C954.79 372.073 954.75 372.169 954.75 372.27V438.01C954.75 438.06 954.74 438.109 954.721 438.156C954.702 438.202 954.674 438.244 954.639 438.279C954.603 438.314 954.561 438.342 954.515 438.361C954.469 438.38 954.42 438.39 954.37 438.39H938.13C938.08 438.39 938.031 438.38 937.985 438.361C937.939 438.342 937.897 438.314 937.861 438.279C937.826 438.244 937.798 438.202 937.779 438.156C937.76 438.109 937.75 438.06 937.75 438.01V291.27C937.75 291.22 937.76 291.171 937.779 291.125C937.798 291.079 937.826 291.037 937.861 291.001C937.897 290.966 937.939 290.938 937.985 290.919C938.031 290.9 938.08 290.89 938.13 290.89H1025.62C1025.67 290.89 1025.72 290.9 1025.77 290.919C1025.81 290.938 1025.85 290.966 1025.89 291.001C1025.92 291.037 1025.95 291.079 1025.97 291.125C1025.99 291.171 1026 291.22 1026 291.27V302.01C1026 302.06 1025.99 302.109 1025.97 302.156C1025.95 302.202 1025.92 302.244 1025.89 302.279C1025.85 302.314 1025.81 302.342 1025.77 302.361C1025.72 302.38 1025.67 302.39 1025.62 302.39H955.13C955.029 302.39 954.933 302.43 954.861 302.501C954.79 302.573 954.75 302.669 954.75 302.77V360.76C954.75 360.861 954.79 360.958 954.861 361.029C954.933 361.1 955.029 361.14 955.13 361.14Z" fill="#24286A"/>
<path d="M1122.75 301.89H1048.75C1048.41 301.89 1048.24 301.723 1048.25 301.39L1048.26 291.39C1048.26 291.258 1048.31 291.13 1048.4 291.037C1048.5 290.943 1048.62 290.89 1048.75 290.89H1141C1141.33 290.89 1141.5 291.057 1141.5 291.39V305.59C1141.5 305.877 1141.42 306.14 1141.25 306.38C1114.83 344.58 1088.41 382.773 1061.98 420.96C1060.45 423.17 1060.53 424.69 1060.8 427.21C1060.83 427.497 1060.98 427.64 1061.27 427.64H1140C1140.33 427.64 1140.5 427.807 1140.5 428.14V437.89C1140.5 438.223 1140.33 438.39 1140 438.39H1042.5C1042.17 438.39 1042 438.223 1042 437.89V424.41C1042 424.078 1042.1 423.757 1042.29 423.49L1123.02 307.34C1123.17 307.126 1123.25 306.874 1123.25 306.62V302.39C1123.25 302.057 1123.08 301.89 1122.75 301.89Z" fill="#24286A"/>
<path d="M1424.63 0.00012207H1687.51C1692.78 9.88628 1696.94 20.2554 1702.61 29.9095C1702.74 30.1479 1702.68 30.2671 1702.4 30.2671H1440.53C1440.35 30.2671 1440.2 30.3382 1440.08 30.4803C1430.02 43.0011 1419.45 55.0765 1408.38 66.7066C1408.36 66.7297 1408.34 66.7589 1408.34 66.7905C1408.33 66.8221 1408.34 66.8547 1408.35 66.8842C1408.36 66.9136 1408.38 66.9387 1408.41 66.9562C1408.44 66.9737 1408.47 66.9829 1408.5 66.9826L2017.54 66.9199C2017.74 66.9199 2017.88 67.014 2017.95 67.2021C2025.64 86.7674 2033.92 105.599 2043.72 124.625C2049.27 135.414 2055.38 146.109 2062.59 155.883C2062.95 156.368 2063.43 156.573 2064.02 156.497C2090.88 153.093 2117.58 153.98 2144.13 159.157C2186.93 167.506 2225.46 191.626 2244.71 231.886C2244.81 232.095 2244.98 232.231 2245.2 232.293C2280.61 242.098 2315.23 265.07 2323.73 303.322C2324.15 305.229 2324.62 307.128 2325.13 309.018V311.063C2316.2 312.756 2307.29 314.542 2298.4 316.42C2295.6 317.014 2292.79 317.559 2289.98 318.057C2289.06 318.22 2288.16 318.929 2287.12 318.333C2251.66 298.053 2210.08 291.228 2169.72 293.994C2143.67 295.782 2117.64 300.185 2092.93 308.786C2048.99 324.067 2013.46 352.74 1982.03 386.457C1974.82 394.194 1967.64 401.953 1960.47 409.736C1958.27 412.141 1955.13 415.173 1951.05 418.832C1941.31 427.593 1929.78 433.203 1916.45 435.662C1905.63 437.657 1895.52 438.585 1884.87 439.031C1870.76 439.627 1856.54 439.89 1842.43 439.89C1799.34 439.884 1756.25 439.733 1713.17 439.708C1712.96 439.708 1712.8 439.629 1712.66 439.47L1687.3 409.473C1726.89 409.427 1766.45 409.414 1805.99 409.435C1806.44 409.435 1806.96 409.617 1807.46 409.617C1818.33 409.634 1829.19 409.634 1840.06 409.617C1847.2 409.604 1856.69 409.303 1865.01 409.291C1880.08 409.266 1895.71 408.783 1910.54 405.954C1921.64 403.84 1930.11 397.993 1937.66 389.738C1944.57 382.181 1951.51 374.649 1958.47 367.143C1977.72 346.417 1998.6 327.303 2021.92 311.238C2050.1 291.842 2080.85 278.54 2114.19 271.33C2129.98 267.917 2146.39 265.277 2161.57 264.241C2192.91 262.102 2224.55 267.284 2254.41 276.668C2258.28 277.881 2264.34 279.884 2272.6 282.678C2272.91 282.778 2272.95 282.709 2272.74 282.471C2267.9 276.984 2262.28 272.453 2255.87 268.877C2248.73 264.892 2242.08 262.261 2235.89 260.986C2231.32 260.037 2226.77 259.177 2222.25 258.408C2222.06 258.376 2221.88 258.29 2221.73 258.16C2221.59 258.03 2221.48 257.861 2221.43 257.674C2220.19 253.245 2218.99 248.653 2217.14 244.607C2204.33 216.611 2175.57 198.075 2146.49 190.741C2100.59 179.162 2050.55 185.297 2006.57 201.857C2006.35 201.937 2006.3 202.075 2006.42 202.271C2018.58 222.131 2032.42 241.628 2048.77 258.339C2048.8 258.374 2048.82 258.421 2048.82 258.47C2048.82 258.52 2048.8 258.567 2048.77 258.602L2027.7 279.673C2027.66 279.714 2027.61 279.746 2027.56 279.768C2027.5 279.79 2027.45 279.801 2027.39 279.8C2027.33 279.8 2027.27 279.788 2027.22 279.765C2027.16 279.742 2027.12 279.708 2027.07 279.667C2018.12 270.425 2009.81 260.607 2002.16 250.215C1981.98 222.828 1964.78 193.213 1949.74 162.733C1949.7 162.658 1949.64 162.594 1949.57 162.55C1949.5 162.505 1949.42 162.482 1949.33 162.482H1471.1H1408.23C1408.21 162.481 1408.19 162.486 1408.17 162.497C1408.15 162.508 1408.14 162.525 1408.13 162.545C1408.12 162.564 1408.11 162.586 1408.12 162.608C1408.12 162.629 1408.13 162.648 1408.15 162.664C1418.99 174.457 1429.44 186.603 1439.5 199.103C1439.82 199.651 1440.15 199.925 1440.49 199.925C1513.04 199.912 1585.58 199.912 1658.13 199.925C1658.36 199.925 1658.48 200.04 1658.48 200.27L1658.52 229.885C1658.52 230.106 1658.41 230.217 1658.19 230.217L1579.58 230.223L1516.44 230.217C1516.1 230.217 1516.05 230.34 1516.28 230.587C1527.22 242.38 1537.72 254.579 1547.77 267.184L1547.92 267.422C1548.02 267.585 1548.16 267.667 1548.35 267.667H1766.2C1766.25 267.667 1766.3 267.685 1766.33 267.718C1766.36 267.751 1766.38 267.796 1766.38 267.842L1766.4 297.795C1766.4 297.842 1766.38 297.887 1766.35 297.92C1766.31 297.953 1766.27 297.971 1766.23 297.971L1682.92 297.977L1612.01 297.965C1611.98 297.964 1611.95 297.972 1611.93 297.988C1611.9 298.003 1611.88 298.025 1611.87 298.051C1611.86 298.078 1611.86 298.107 1611.86 298.135C1611.87 298.163 1611.88 298.189 1611.9 298.209C1624.74 311.546 1636.92 325.495 1648.44 340.056C1648.45 340.069 1648.46 340.094 1648.48 340.132C1648.51 340.215 1648.59 340.217 1648.7 340.138C1648.69 340.196 1648.69 340.253 1648.72 340.307C1648.73 340.344 1648.75 340.375 1648.78 340.398C1648.81 340.42 1648.85 340.432 1648.89 340.433H1866.57C1866.61 340.433 1866.66 340.451 1866.69 340.484C1866.73 340.517 1866.74 340.562 1866.74 340.608L1866.77 370.568C1866.77 370.613 1866.75 370.656 1866.72 370.688C1866.69 370.719 1866.65 370.737 1866.61 370.737L1728.58 370.831L1632.96 370.725C1632.75 370.725 1632.59 370.635 1632.48 370.455C1626.21 360.337 1619.01 351.479 1610.5 341.712C1597.67 326.988 1584.3 312.765 1570.39 299.044C1570.26 298.918 1570.19 298.766 1570.18 298.586L1570.17 298.335C1570.16 298.235 1570.12 298.141 1570.05 298.072C1569.97 298.003 1569.88 297.965 1569.78 297.965H1533.17C1532.99 297.965 1532.85 297.892 1532.74 297.745C1525.44 287.654 1516.29 276.321 1505.29 263.746C1496.01 253.132 1485.45 241.628 1474.2 230.424C1474.06 230.286 1473.9 230.217 1473.7 230.217H1425.29C1425.11 230.217 1424.96 230.142 1424.85 229.991C1420.61 224.178 1416.67 219.039 1413.01 214.572C1397.94 196.188 1383.95 180.491 1371.03 167.481C1359.42 155.78 1347.81 144.152 1336.2 132.598C1335.93 132.334 1335.98 132.202 1336.36 132.202H1968.55C1968.77 132.202 1968.93 132.305 1969.02 132.51C1975.62 147.004 1982.78 161.213 1990.52 175.134C1990.55 175.205 1990.62 175.259 1990.7 175.286C1990.77 175.312 1990.86 175.31 1990.94 175.279C2003.7 170.164 2016.77 165.976 2030.14 162.714C2030.34 162.66 2030.39 162.54 2030.28 162.356C2017.49 141.668 2006.93 119.751 1997.46 97.3875C1997.39 97.2161 1997.26 97.1303 1997.08 97.1303L1336.37 97.2746C1335.95 97.2746 1335.89 97.1262 1336.18 96.8292C1358.93 74.3094 1386.12 47.3483 1409.06 20.4813C1414.82 13.74 1420.01 6.9129 1424.63 0.00012207Z" fill="#24286A"/>
<path d="M1471.1 162.482H1949.33C1949.42 162.482 1949.5 162.505 1949.57 162.55C1949.64 162.594 1949.7 162.658 1949.74 162.733C1964.78 193.213 1981.98 222.828 2002.16 250.215C2009.81 260.607 2018.12 270.425 2027.07 279.667C2027.12 279.709 2027.16 279.742 2027.22 279.765C2027.27 279.788 2027.33 279.8 2027.39 279.8C2027.45 279.801 2027.5 279.79 2027.56 279.768C2027.61 279.746 2027.66 279.714 2027.7 279.673L2048.77 258.602C2048.8 258.567 2048.82 258.52 2048.82 258.47C2048.82 258.421 2048.8 258.374 2048.77 258.339C2032.43 241.628 2018.58 222.131 2006.42 202.271C2006.3 202.075 2006.35 201.937 2006.57 201.857C2050.55 185.297 2100.59 179.162 2146.49 190.742C2175.57 198.075 2204.34 216.611 2217.14 244.607C2218.99 248.653 2220.19 253.245 2221.43 257.674C2221.48 257.861 2221.59 258.03 2221.73 258.16C2221.88 258.29 2222.06 258.376 2222.25 258.408C2226.77 259.177 2231.32 260.037 2235.89 260.986C2242.08 262.261 2248.73 264.892 2255.87 268.877C2262.28 272.453 2267.9 276.984 2272.74 282.471C2272.95 282.709 2272.91 282.778 2272.6 282.678C2264.34 279.884 2258.28 277.881 2254.41 276.668C2224.55 267.284 2192.91 262.103 2161.57 264.242C2146.39 265.277 2129.98 267.918 2114.19 271.33C2080.85 278.54 2050.1 291.843 2021.92 311.238C1998.6 327.303 1977.73 346.417 1958.47 367.143C1951.51 374.65 1944.57 382.181 1937.66 389.738C1930.11 397.993 1921.64 403.84 1910.54 405.954C1895.71 408.783 1880.08 409.266 1865.01 409.291C1856.7 409.303 1847.2 409.604 1840.06 409.617C1829.19 409.634 1818.33 409.634 1807.46 409.617C1806.96 409.617 1806.44 409.435 1805.99 409.435C1766.45 409.414 1726.89 409.427 1687.3 409.473L1728.58 370.831L1866.61 370.737C1866.65 370.737 1866.69 370.719 1866.72 370.688C1866.75 370.656 1866.77 370.613 1866.77 370.568L1866.74 340.608C1866.74 340.562 1866.73 340.517 1866.69 340.484C1866.66 340.451 1866.62 340.433 1866.57 340.433H1648.89C1648.85 340.432 1648.82 340.42 1648.78 340.398C1648.75 340.375 1648.73 340.344 1648.72 340.307C1648.69 340.253 1648.69 340.196 1648.7 340.138L1682.92 297.977L1766.23 297.971C1766.27 297.971 1766.31 297.953 1766.35 297.92C1766.38 297.887 1766.4 297.842 1766.4 297.796L1766.38 267.842C1766.38 267.796 1766.36 267.751 1766.33 267.718C1766.3 267.685 1766.25 267.667 1766.2 267.667H1548.35C1548.16 267.667 1548.02 267.585 1547.92 267.422L1547.77 267.184L1579.58 230.223L1658.19 230.217C1658.41 230.217 1658.52 230.106 1658.52 229.885L1658.48 200.27C1658.48 200.04 1658.36 199.925 1658.13 199.925C1585.58 199.913 1513.04 199.913 1440.49 199.925C1440.15 199.925 1439.82 199.651 1439.5 199.103L1471.1 162.482ZM2105.64 206.913C2103.13 205.772 2100.23 204.686 2098.3 202.604C2097.29 201.512 2097.08 201.65 2097.66 203.018C2098.1 204.076 2098.97 205.406 2100.25 207.007C2109.5 218.568 2123.26 227.934 2136.34 234.583C2137.73 235.29 2139.06 235.677 2140.33 235.744C2142.79 235.869 2145.09 235.526 2147.24 234.715C2153.95 232.187 2160.39 227.313 2168.05 225.719C2169.61 225.393 2171.26 225.588 2172.88 225.65C2172.93 225.65 2172.97 225.623 2172.97 225.569V225.563C2172.98 225.504 2172.95 225.471 2172.9 225.462C2170.05 224.935 2165.39 224.009 2158.91 222.683C2140.23 218.851 2122.2 214.472 2105.64 206.913Z" fill="#CCCCCC"/>
<path d="M2105.64 206.913C2122.2 214.472 2140.23 218.851 2158.91 222.683C2165.39 224.009 2170.05 224.935 2172.9 225.462C2172.95 225.471 2172.98 225.504 2172.97 225.563V225.569C2172.97 225.623 2172.93 225.65 2172.88 225.65C2171.26 225.588 2169.61 225.393 2168.05 225.719C2160.39 227.313 2153.95 232.187 2147.24 234.715C2145.09 235.526 2142.79 235.869 2140.33 235.744C2139.06 235.677 2137.73 235.29 2136.34 234.583C2123.26 227.934 2109.5 218.568 2100.25 207.007C2098.97 205.406 2098.1 204.076 2097.66 203.018C2097.08 201.65 2097.29 201.512 2098.3 202.604C2100.23 204.686 2103.13 205.772 2105.64 206.913Z" fill="#24286A"/>
</svg>
